General 
http://www.imdb.com/title/tt2024432/
Unique ID                                : 196306058262954990061910596707952404917 (0x93AF2BED259D72D5A0AA10095AB8A9B5)
Complete name                            : Identity Thief 2013 WEBrip SUBBED READNFO x264 Ac3-MiNiSTRY.mkv
source                                   : 720p smy [thanks]
Format                                   : Matroska
Format version                           : Version 4 / Version 2
File size                                : 1.51 GiB
Duration                                 : 1h 51mn
Overall bit rate                         : 1 944 Kbps
Encoded date                             : UTC 2013-03-02 10:53:31
Writing application                      : mkvmerge v6.0.0 ('Coming Up For Air') built on Jan 20 2013 09:52:00
Writing library                          : libebml v1.3.0 + libmatroska v1.4.0

Video
ID                                       : 1
Format                                   : AVC
Format/Info                              : Advanced Video Codec
Format profile                           : High@L3.0
Format settings, CABAC                   : Yes
Format settings, ReFrames                : 4 frames
Codec ID                                 : V_MPEG4/ISO/AVC
Duration                                 : 1h 51mn
Bit rate                                 : 1 500 Kbps
Width                                    : 720 pixels
Height                                   : 304 pixels
Display aspect ratio                     : 2.35:1
Frame rate                               : 25.000 fps
Color space                              : YUV
Chroma subsampling                       : 4:2:0
Bit depth                                : 8 bits
Scan type                                : Progressive
Bits/(Pixel*Frame)                       : 0.274
Stream size                              : 1.13 GiB (75%)
Writing library                          : x264 core 120
Language                                 : English
Default                                  : Yes
Forced                                   : No
Color primaries                          : BT.601-6 525, BT.1358 525, BT.1700 NTSC, SMPTE 170M
Transfer characteristics                 : BT.709-5, BT.1361
Matrix coefficients                      : BT.601-6 525, BT.1358 525, BT.1700 NTSC, SMPTE 170M

Audio
ID                                       : 2
Format                                   : AC-3
Format/Info                              : Audio Coding 3
Mode extension                           : CM (complete main)
Codec ID                                 : A_AC3
Duration                                 : 1h 51mn
Bit rate mode                            : Constant
Bit rate                                 : 448 Kbps
Channel(s)                               : 6 channels
Channel positions                        : Front: L C R, Side: L R, LFE
Sampling rate                            : 48.0 KHz
Bit depth                                : 16 bits
Compression mode                         : Lossy
Stream size                              : 357 MiB (23%)
Default                                  : Yes
Forced                                   : No

Notes:

usual filters added to vid resized, alterd a/r, hue, gamma, saturation, cont, brightness

changed the framerate from varible to constant to help the shudder

created 6 channel audio in sound forge and mixed down in vegas

best i could do with this enjoy  

2 samples included 